mastitorrents.com
  
http://mastitorrents.com/forums/index.php







----------------------------------------------------------------------------------------------------
----------------------------------------------------------------------------------------------------

LIKE US @ FACEBOOK


1.  http://urlgator.com/efyQx   [MastiTorrentsReleasers]

2.  http://urlgator.com/FG4tl   [MastiTorrents]


[OR]



Search for "MastiTorrentsReleasers" and "MastiTorrents" 



We are waiting for you!!!



----------------------------------------------------------------------------------------------------
----------------------------------------------------------------------------------------------------





****************************************************************************************************
****************************************************************************************************





   8b    d8    db    .dP"Y8 888888 88 888888  dP"Yb  88""Yb 88""Yb 888888 88b 88 888888 .dP"Y8 
   88b  d88   dPYb   `Ybo."   88   88   88   dP   Yb 88__dP 88__dP 88__   88Yb88   88   `Ybo." 
   88YbdP88  dP__Yb  o.`Y8b   88   88   88   Yb   dP 88"Yb  88"Yb  88""   88 Y88   88   o.`Y8b 
   88 YY 88 dP""""Yb 8bodP'   88   88   88    YbodP  88  Yb 88  Yb 888888 88  Y8   88   8bodP' 




****************************************************************************************************
****************************************************************************************************




====================================================================================================

                           MASTI TORRENTS RELEASERS [ MTR ]

                                Where Quality Matters!

====================================================================================================









description:






Muran (English: Conflict) is a 2011 Indian Tamil thriller film written and directed by debutant Rajjan Madhav.[2] It stars Cheran alongside Prasanna, with Nikita Thukral, Haripriya and Jayaprakash in pivotal roles. Launched in September 2010,[3] the film's shooting was completed by July 2011.[4] The story revolves around two contrasting characters and depicts the incidents that occur when they meet each other.[5] The film was supposed to be based on Alfred Hitchcock's psychological thriller Strangers on a Train (1951). Co-produced and distributed by UTV Motion Pictures,[6] Muran was released on September 30, 2011 to overall positive reviews.
[edit]Cast

Prasanna as Arjun Devarajan
Cheran as Nanda
Nikita Thukral as Indhu
Haripriya as Lavanya
Suma Bhattacharya as Linda
Jayaprakash as Devarajan
Prathap Pothan
Neelima Rani

STORY / PLOT:

After finishing a successful meeting with his movie producers in Bangalore, Nanda, a jingles composer catches the highway to Chennai. On his way his car breaks down and he hitchhikes with Arjun, a businessman's son on his way to the same destination. During their journey together they discuss their personal lives till Arjun proposes a deal; a deal that is marked with murder but promises to better their personal lives. However this deal does not work in Nanda's favor and he soon finds himself in deeper complications.

 
http://www.imdb.com/title/tt2053397/




Quote:


General

Complete name : C:\Muran(Tamil 2011) TC Rip x264 350mb TDM -=MTR=- mastitorrents\Muran(Tamil 2011) TC Rip x264 350mb TDM -=MTR=- mastitorrents.mkv
Format : Matroska
Format version : Version 2
File size : 350 MiB
Duration : 2h 17mn
Overall bit rate : 355 Kbps
Movie name : VTS_01_1
Encoded date : UTC 2011-10-02 17:14:00
Writing application : mkvmerge v4.6.0 ('Still Crazy After All These Years') built on Mar 10 2011 02:50:32
Writing library : libebml v1.2.0 + libmatroska v1.1.0

Video
ID : 1
Format : AVC
Format/Info : Advanced Video Codec
Format profile : High@L4.0
Format settings, CABAC : Yes
Format settings, ReFrames : 3 frames
Codec ID : V_MPEG4/ISO/AVC
Duration : 2h 17mn
Bit rate mode : Variable
Bit rate : 290 Kbps
Maximum bit rate : 25.0 Mbps
Width : 640 pixels
Height : 272 pixels
Display aspect ratio : 2.35:1
Frame rate : 29.970 fps
Color space : YUV
Chroma subsampling : 4:2:0
Bit depth : 8 bits
Scan type : Progressive
Bits/(Pixel*Frame) : 0.056
Stream size : 280 MiB (80%)
Writing library : x264 core 114 r1924 08d04a4
Encoding settings : cabac=1 / ref=3 / deblock=1:0:0 / analyse=0x3:0x133 / me=umh / subme=7 / psy=1 / psy_rd=1.00:0.00 / mixed_ref=1 / me_range=16 / chroma_me=1 / trellis=1 / 8x8dct=1 / cqm=0 / deadzone=21,11 / fast_pskip=1 / chroma_qp_offset=-2 / threads=6 / sliced_threads=0 / nr=0 / decimate=1 / interlaced=0 / constrained_intra=0 / bframes=3 / b_pyramid=0 / b_adapt=1 / b_bias=0 / direct=1 / weightb=1 / open_gop=0 / weightp=2 / keyint=300 / keyint_min=30 / scenecut=40 / intra_refresh=0 / rc_lookahead=40 / rc=2pass / mbtree=1 / bitrate=290 / ratetol=1.0 / qcomp=0.60 / qpmin=0 / qpmax=69 / qpstep=4 / cplxblur=20.0 / qblur=0.5 / vbv_maxrate=25000 / vbv_bufsize=25000 / nal_hrd=vbr / ip_ratio=1.40 / aq=1:1.00

Audio
ID : 2
Format : MPEG Audio
Format version : Version 1
Format profile : Layer 2
Codec ID : A_MPEG/L2
Codec ID/Hint : MP2
Duration : 2h 17mn
Bit rate mode : Constant
Bit rate : 64.0 Kbps
Channel(s) : 2 channels
Sampling rate : 48.0 KHz
Compression mode : Lossy
Stream size : 63.0 MiB (18%)







Quote:




Source : Thambi - Thanks

Ripper : TheDarkMaster -TDM-





Screens/Covers:

 
http://picturestack.com/617/608/NTtMuranTDMMTjms.png
 
http://picturestack.com/617/609/GK7MuranTDMMTTjs.png
 
http://picturestack.com/617/609/PluMuranTDMMTQja.png
 
http://picturestack.com/617/609/pWfMuranTDMMTMfD.png
 
http://picturestack.com/617/609/54qMuranTDMMTS9I.png











****check out my other releases****

 
http://thepiratebay.org/user/tdkdemon/










****************************************************************************************************
****************************************************************************************************





    &lt;&lt;&lt;&lt;&lt;&lt;&lt;SUPERFAST RELEASES BROUGHT TO YOU BY&gt;&gt;&gt;&gt;&gt;&gt;

          


                                  Masti Torrents Releasers [ MTR ]





            8888b.  888888 8b    d8  dP"Yb  88b 88     88888 8b    d8 888888 88""Yb 88888 
             8I  Yb 88__   88b  d88 dP   Yb 88Yb88     88    88b  d88   88   88__dP    88 
             8I  dY 88""   88YbdP88 Yb   dP 88 Y88     88    88YbdP88   88   88"Yb     88 
            8888Y"  888888 88 YY 88  YbodP  88  Y8     88888 88 YY 88   88   88  Yb 88888 





****************************************************************************************************
****************************************************************************************************
